HIERARCHY
ROOT Hips
{
	OFFSET 0.000000 0.000000 0.000000
	CHANNELS 6 Xposition Yposition Zposition Zrotation Yrotation Xrotation 
	JOINT LeftUpLeg_virtual
	{
		OFFSET 0.000000 0.000000 0.000000
		CHANNELS 3 Zrotation Yrotation Xrotation
		JOINT LeftUpLeg
		{
			OFFSET 8.479694 -4.795517 -0.379053
			CHANNELS 3 Zrotation Yrotation Xrotation
			JOINT LeftLeg
			{
				OFFSET 0.485052 -32.551468 0.112863
				CHANNELS 3 Zrotation Yrotation Xrotation
				JOINT LeftFoot
				{
					OFFSET 0.438033 -32.635670 -3.012641
					CHANNELS 3 Zrotation Yrotation Xrotation
					JOINT LeftToeBase
					{
						OFFSET 0.970169 -13.225353 11.864223
						CHANNELS 3 Zrotation Yrotation Xrotation
						End Site
						{
							OFFSET 0.000000 0.000000 0.000000
						}
					}
				}
			}
		}
	}
	JOINT RightUpLeg_virtual
	{
		OFFSET 0.000000 0.000000 0.000000
		CHANNELS 3 Zrotation Yrotation Xrotation
		JOINT RightUpLeg
		{
			OFFSET -8.479694 -4.795517 -0.379053
			CHANNELS 3 Zrotation Yrotation Xrotation
			JOINT RightLeg
			{
				OFFSET -0.484100 -32.551483 0.112903
				CHANNELS 3 Zrotation Yrotation Xrotation
				JOINT RightFoot
				{
					OFFSET -0.438985 -32.635651 -3.012681
					CHANNELS 3 Zrotation Yrotation Xrotation
					JOINT RightToeBase
					{
						OFFSET -0.970169 -13.225354 11.864223
						CHANNELS 3 Zrotation Yrotation Xrotation
						End Site
						{
							OFFSET 0.000000 0.000000 0.000000
						}
					}
				}
			}
		}
	}
	JOINT Spine_virtual
	{
		OFFSET 0.000000 0.000000 0.000000
		CHANNELS 3 Zrotation Yrotation Xrotation
		JOINT Spine
		{
			OFFSET 0.000000 7.722015 1.166203
			CHANNELS 3 Zrotation Yrotation Xrotation
			JOINT Spine1
			{
				OFFSET 0.000000 12.024086 0.248766
				CHANNELS 3 Zrotation Yrotation Xrotation
				JOINT Spine2
				{
					OFFSET -0.000000 11.503036 -0.491240
					CHANNELS 3 Zrotation Yrotation Xrotation
					JOINT Neck_virtual
					{
						OFFSET 0.000000 0.000000 0.000000
						CHANNELS 3 Zrotation Yrotation Xrotation
						JOINT Neck
						{
							OFFSET 0.000000 18.430687 -3.123054
							CHANNELS 3 Zrotation Yrotation Xrotation
							JOINT Head
							{
								OFFSET -0.000000 9.051071 1.034021
								CHANNELS 3 Zrotation Yrotation Xrotation
								End Site
								{
									OFFSET 0.000000 0.000000 0.000000
								}
							}
						}
					}
					JOINT LeftShoulder_virtual
					{
						OFFSET 0.000000 0.000000 0.000000
						CHANNELS 3 Zrotation Yrotation Xrotation
						JOINT LeftShoulder
						{
							OFFSET 6.197824 13.665230 -4.064723
							CHANNELS 3 Zrotation Yrotation Xrotation
							JOINT LeftArm
							{
								OFFSET 7.778132 -0.187073 -1.709282
								CHANNELS 3 Zrotation Yrotation Xrotation
								JOINT LeftForeArm
								{
									OFFSET 21.954697 0.000000 -2.041093
									CHANNELS 3 Zrotation Yrotation Xrotation
									JOINT LeftHand
									{
										OFFSET 22.992908 0.000000 -0.870901
										CHANNELS 3 Zrotation Yrotation Xrotation
										End Site
										{
											OFFSET 0.000000 0.000000 0.000000
										}
									}
								}
							}
						}
					}
					JOINT RightShoulder_virtual
					{
						OFFSET 0.000000 0.000000 0.000000
						CHANNELS 3 Zrotation Yrotation Xrotation
						JOINT RightShoulder
						{
							OFFSET -6.197824 13.665230 -4.064723
							CHANNELS 3 Zrotation Yrotation Xrotation
							JOINT RightArm
							{
								OFFSET -7.778132 -0.187073 -1.709282
								CHANNELS 3 Zrotation Yrotation Xrotation
								JOINT RightForeArm
								{
									OFFSET -21.954697 0.000000 -2.041093
									CHANNELS 3 Zrotation Yrotation Xrotation
									JOINT RightHand
									{
										OFFSET -22.992908 0.000000 -0.870901
										CHANNELS 3 Zrotation Yrotation Xrotation
										End Site
										{
											OFFSET 0.000000 0.000000 0.000000
										}
									}
								}
							}
						}
					}
				}
			}
		}
	}
}
MOTION
Frames: 12
Frame Time: 0.033333
5.804346 27.512901 27.653036 179.995688 2.846081 179.983968 16.932295 -4.887276 -56.926413 2.479650 4.697931 -41.223470 11.097368 -0.251502 32.824110 -11.055512 -13.029269 -6.901360 0.000000 0.000000 0.000000 6.023654 2.969061 -55.336010 -1.455261 -9.959495 -43.374611 1.777400 8.595391 34.112256 10.792933 14.050193 2.178970 0.000000 0.000000 0.000000 0.357284 2.618331 -54.684513 -3.106748 0.585109 0.805045 -1.940225 0.087501 9.550643 -0.025024 -0.004812 -0.075705 -2.376487 -0.175536 10.152599 -1.666119 -13.461111 29.052203 0.000000 0.000000 0.000000 1.671002 0.519379 3.914276 2.485219 -1.985842 11.199226 -60.583737 32.870555 -9.417455 -55.524674 -76.724560 64.676250 0.000000 0.000000 0.000000 -4.812294 2.040202 3.058081 17.049723 9.961510 16.385207 104.420656 -43.262196 -32.180361 -156.058484 75.617393 -155.329662 0.000000 0.000000 0.000000 
5.722480 27.507507 27.603771 -179.982902 2.838593 179.984350 17.082561 -4.921922 -56.898136 2.425796 4.722177 -41.316122 11.072227 -0.194329 33.059926 -10.996615 -12.981489 -7.092363 0.000000 0.000000 0.000000 6.190283 2.804794 -55.383105 -1.673587 -9.705061 -43.284422 1.801129 8.266015 34.066948 10.827316 14.247855 2.163137 0.000000 0.000000 0.000000 0.515821 2.551247 -54.533043 -3.031065 0.635341 0.701038 -1.975685 0.137747 9.522854 -0.012925 0.012748 -0.011314 -2.417174 -0.152222 10.088784 -1.683909 -13.482507 29.058808 0.000000 0.000000 0.000000 1.647082 0.523506 3.831261 2.453787 -2.018098 11.193273 -60.354734 32.839556 -9.213702 -54.908024 -76.666251 64.164546 0.000000 0.000000 0.000000 -4.887538 2.114267 2.986522 17.010584 10.089274 16.500800 104.583508 -43.358761 -32.313867 -155.519582 75.618814 -154.777537 0.000000 0.000000 0.000000 
5.637121 27.483438 27.581221 -179.988189 2.860367 179.947932 17.158584 -4.891361 -56.931590 2.136824 4.906355 -41.363342 11.164513 -0.367338 33.131284 -11.084683 -13.074983 -7.114407 0.000000 0.000000 0.000000 6.367991 2.422930 -55.398295 -1.302527 -9.702634 -43.239581 1.966020 8.637217 33.896900 10.571861 14.440220 2.258509 0.000000 0.000000 0.000000 0.533803 2.572506 -54.412798 -2.949057 0.613838 0.669367 -2.020565 0.169377 9.576384 -0.030787 0.023406 -0.047986 -2.414260 -0.215076 10.116636 -1.669849 -13.528025 29.015695 0.000000 0.000000 0.000000 1.588478 0.540904 3.928597 2.502885 -2.150446 11.159896 -60.307859 32.683616 -9.128408 -54.507748 -76.533335 63.713104 0.000000 0.000000 0.000000 -4.928584 2.054415 3.011336 17.006882 10.091275 16.638841 104.707524 -43.376312 -32.326910 -155.426719 75.672410 -154.635537 0.000000 0.000000 0.000000 
5.578568 27.448936 27.607525 -179.980799 2.921893 179.947372 17.198474 -4.835266 -57.010821 2.001814 5.065696 -41.338719 11.159029 -0.436825 33.107976 -10.994925 -13.133007 -7.036657 0.000000 0.000000 0.000000 6.149417 2.900926 -55.416863 -1.635013 -10.303299 -43.238933 1.805536 8.107669 33.870573 11.126411 14.566178 2.368615 0.000000 0.000000 0.000000 0.530638 2.661243 -54.361704 -2.959832 0.502806 0.626285 -2.043693 0.177149 9.554765 -0.038216 0.028243 -0.008467 -2.428426 -0.091408 10.090632 -1.675535 -13.560462 29.033256 0.000000 0.000000 0.000000 1.578420 0.539345 3.879409 2.519659 -2.253990 11.181616 -60.350172 32.603467 -9.118514 -53.923298 -76.580504 63.090136 0.000000 0.000000 0.000000 -4.959957 2.084092 2.993794 16.876325 10.166638 16.634685 104.791173 -43.501608 -32.326261 -155.336943 75.668107 -154.541718 0.000000 0.000000 0.000000 
5.558864 27.413912 27.635798 179.947180 3.066312 179.971441 17.144984 -4.645796 -57.092718 1.820032 5.298003 -41.275543 11.131724 -0.527160 33.004775 -10.956411 -13.252668 -6.913638 0.000000 0.000000 0.000000 6.109725 3.162405 -55.469769 -1.805442 -10.343461 -43.246763 1.733023 8.022350 33.927134 11.257266 14.487226 2.476011 0.000000 0.000000 0.000000 0.486772 2.803710 -54.426403 -3.007166 0.444574 0.599480 -2.080233 0.172034 9.577352 -0.038143 0.008810 -0.080764 -2.443980 -0.098270 10.177080 -1.779175 -13.432744 28.966293 0.000000 0.000000 0.000000 1.580438 0.569327 3.928903 2.643938 -2.354077 11.138118 -60.598244 32.707037 -9.292223 -53.985235 -76.561134 63.367968 0.000000 0.000000 0.000000 -4.974072 2.158036 3.043511 16.802994 10.182086 16.778524 104.752958 -43.325389 -32.000673 -155.300825 75.606069 -154.504657 0.000000 0.000000 0.000000 
5.589249 27.384277 27.662180 179.959748 3.231280 -179.999541 17.229623 -4.482064 -57.157007 1.616060 5.654061 -41.183394 11.227333 -0.707855 32.837350 -10.999528 -13.465417 -6.827795 0.000000 0.000000 0.000000 6.220182 3.452289 -55.600895 -1.966014 -10.146387 -43.267350 1.624979 7.912842 34.145632 11.248462 14.476583 2.536417 0.000000 0.000000 0.000000 0.409214 3.013913 -54.548356 -3.082881 0.261142 0.553654 -2.097529 0.241460 9.671971 -0.041386 0.049515 0.025653 -2.454119 -0.099463 10.035708 -1.830320 -13.362506 28.988795 0.000000 0.000000 0.000000 1.550362 0.656442 3.817697 2.779562 -2.467695 11.073176 -60.898499 32.875780 -9.545187 -54.801432 -76.652399 64.304011 0.000000 0.000000 0.000000 -4.999920 2.106613 2.933080 16.691727 10.263578 16.732946 104.682444 -43.324802 -31.717086 -155.453685 75.506915 -154.655564 0.000000 0.000000 0.000000 
5.641026 27.366459 27.663309 179.902429 3.407732 179.997819 17.132519 -4.199084 -57.222119 1.463705 5.672286 -41.064200 11.305800 -0.815749 32.759042 -11.053965 -13.554517 -6.774659 0.000000 0.000000 0.000000 6.228600 3.705240 -55.769010 -2.160811 -9.786645 -43.220413 1.530801 7.892928 34.500426 11.150856 14.286384 2.409540 0.000000 0.000000 0.000000 0.448847 3.076298 -54.639126 -3.223289 0.308547 0.536175 -2.100763 0.228413 9.564215 -0.012067 0.062762 0.017938 -2.472663 -0.076946 10.115048 -1.916542 -13.264294 28.945891 0.000000 0.000000 0.000000 1.558057 0.649617 3.885466 2.991105 -2.551999 10.988605 -61.417853 33.338970 -9.903066 -55.513541 -76.836500 65.177319 0.000000 0.000000 0.000000 -4.994897 2.115333 3.022135 16.588889 10.364079 16.859677 104.450258 -43.117328 -31.324699 -156.090395 75.575346 -155.367064 0.000000 0.000000 0.000000 
5.699096 27.355268 27.632944 179.894028 3.530168 -179.985238 17.135502 -3.992510 -57.286504 1.316813 5.776047 -40.978188 11.440030 -0.898110 32.805187 -11.166246 -13.626901 -6.781287 0.000000 0.000000 0.000000 6.118208 3.876071 -55.831968 -2.171655 -9.455121 -43.198365 1.155691 7.619819 34.340900 10.890737 13.939604 1.834701 0.000000 0.000000 0.000000 0.270367 3.320488 -54.751216 -3.407003 0.189854 0.479075 -2.127198 0.187498 9.581601 -0.022667 0.009811 0.018314 -2.464039 0.117464 10.124355 -1.945212 -13.232217 28.906549 0.000000 0.000000 0.000000 1.632568 0.617858 3.865482 3.224243 -2.672036 11.061064 -62.105667 33.822591 -10.557650 -56.499045 -77.039876 66.380040 0.000000 0.000000 0.000000 -4.964222 2.125123 2.992714 16.455722 10.513702 16.888696 104.148910 -43.042158 -30.833970 -156.664172 75.590113 -155.874424 0.000000 0.000000 0.000000 
5.780157 27.358793 27.574612 179.896364 3.808222 -179.986290 17.039737 -3.659562 -57.179731 1.197892 5.995481 -41.013039 11.469156 -0.972183 32.797578 -11.340951 -13.843300 -6.902122 0.000000 0.000000 0.000000 6.068248 4.413395 -55.865978 -2.322951 -9.182556 -43.192494 0.859177 7.566253 34.532876 10.354217 13.458305 1.218101 0.000000 0.000000 0.000000 0.307666 3.456895 -54.760526 -3.509434 0.134494 0.395689 -2.099612 0.211274 9.586900 -0.047996 0.012465 -0.016124 -2.453916 -0.031520 10.126070 -2.108709 -13.002805 28.860824 0.000000 0.000000 0.000000 1.632451 0.607826 3.848844 3.413236 -2.747455 10.991806 -62.865853 34.450825 -11.258999 -57.877759 -77.214742 67.857711 0.000000 0.000000 0.000000 -4.955380 2.237028 2.953507 16.327579 10.687556 16.978184 103.884691 -42.820075 -30.044383 -156.322239 75.537746 -155.606886 0.000000 0.000000 0.000000 
5.853998 27.370182 27.510489 -179.985252 3.970527 179.998858 16.895055 -3.298951 -57.088084 1.167354 6.054340 -41.038263 11.496051 -0.645730 32.812522 -11.734840 -14.165854 -6.878172 0.000000 0.000000 0.000000 6.016256 4.810692 -55.800603 -2.471447 -8.946350 -43.244267 0.572968 7.487769 34.873354 9.635784 12.905086 1.016876 0.000000 0.000000 0.000000 0.250457 3.718014 -54.720610 -3.619880 0.014656 0.295668 -2.069079 0.184316 9.573374 -0.057261 -0.007527 0.012556 -2.465696 -0.014532 10.057180 -2.218013 -12.865739 28.762606 0.000000 0.000000 0.000000 1.650733 0.617171 3.836413 3.681418 -2.855599 10.961680 -63.641497 34.988402 -11.948373 -58.622544 -77.414423 68.590296 0.000000 0.000000 0.000000 -4.935030 2.200417 2.947195 16.159403 10.888300 16.925306 103.497918 -42.825942 -29.412956 -156.414310 75.567109 -155.735375 0.000000 0.000000 0.000000 
5.907023 27.378017 27.468136 -179.845807 4.153097 -179.979719 16.867924 -3.032821 -56.995466 1.129555 6.330801 -41.119549 11.358526 -0.606967 32.814650 -11.893065 -14.381260 -6.881548 0.000000 0.000000 0.000000 5.975002 5.117027 -55.674217 -2.608514 -8.789718 -43.292085 0.440326 7.408356 34.948726 9.521711 12.870952 0.739222 0.000000 0.000000 0.000000 0.244948 3.980215 -54.661574 -3.696426 -0.090727 0.229751 -2.041169 0.163719 9.572492 -0.084199 -0.022857 -0.002380 -2.424339 -0.023285 10.061351 -2.317494 -12.743659 28.669890 0.000000 0.000000 0.000000 1.670864 0.608505 3.864940 3.884817 -2.960854 10.873097 -64.355975 35.443354 -12.580190 -59.495223 -77.533671 69.544686 0.000000 0.000000 0.000000 -4.869793 2.182669 2.991645 16.019287 11.107992 17.021004 103.085204 -42.679123 -28.963219 -157.038084 75.613835 -156.397808 0.000000 0.000000 0.000000 
5.926312 27.378899 27.453045 -179.844823 4.346004 -179.973859 16.797845 -2.860664 -56.887887 1.161540 6.530577 -41.205995 11.368067 -0.399232 32.874810 -12.091926 -14.543469 -6.870715 0.000000 0.000000 0.000000 5.983130 5.323185 -55.635723 -2.675197 -8.668730 -43.353113 0.378143 7.163751 34.994297 9.567767 12.895346 0.677941 0.000000 0.000000 0.000000 0.122576 4.128320 -54.660467 -3.699218 -0.187809 0.213433 -1.976020 0.163218 9.597996 -0.047146 -0.010699 0.000087 -2.451398 0.075931 10.081072 -2.365254 -12.726787 28.559043 0.000000 0.000000 0.000000 1.651359 0.605319 3.967259 4.045088 -3.106624 10.788163 -64.821979 35.738289 -12.972890 -60.046420 -77.635810 70.153761 0.000000 0.000000 0.000000 -4.897781 2.126692 3.020378 15.966699 11.218323 17.067449 102.867492 -42.628331 -28.614613 -157.027524 75.629319 -156.427888 0.000000 0.000000 0.000000 
